# xmcd
#
# Track frame offsets: 
#        150
#        17212
#        26862
#        51877
#        74585
#        87865
#        105025
#        119487
#        133045
#        146092
#        156735
#        172317
#        189530
#
# Disc length: 2751 seconds
#
# Revision: 0
# Processed by: cddbd v1.5.2PL0 Copyright (c) Steve Scherf et al.
# Submitted via: ExactAudioCopy v1.3
#
DISCID=c40abd0d
DTITLE=妹尾隆一郎 - Weeping Harp Senoh Messin' around
DYEAR=1900
DGENRE=Blues
TTITLE0=Bobby sox Blues
TTITLE1=Money's getting cheaper
TTITLE2=Messin' around
TTITLE3=Unseen eye
TTITLE4=Oh baby
TTITLE5=Night walk
TTITLE6=Juke
TTITLE7=You're the one
TTITLE8=Don't lie to me
TTITLE9=Kansas city blues
TTITLE10=Don't dog your woman
TTITLE11=Let the good times roll
TTITLE12=Carrie Lee
EXTD=
EXTT0=
EXTT1=
EXTT2=
EXTT3=
EXTT4=
EXTT5=
EXTT6=
EXTT7=
EXTT8=
EXTT9=
EXTT10=
EXTT11=
EXTT12=
PLAYORDER=
